<svg fill="none" height="640" viewBox="0 0 1200 640" width="1200" xmlns="http://www.w3.org/2000/svg" xmlns:xlink="http://www.w3.org/1999/xlink"><filter id="a" color-interpolation-filters="sRGB" filterUnits="userSpaceOnUse" height="124.825" width="219.921" x="400.129" y="338.957"><feFlood flood-opacity="0" result="BackgroundImageFix"/><feColorMatrix in="SourceAlpha" type="matrix" values="0 0 0 0 0 0 0 0 0 0 0 0 0 0 0 0 0 0 127 0"/><feOffset dy="19"/><feGaussianBlur stdDeviation="20.5"/><feColorMatrix type="matrix" values="0 0 0 0 0.172549 0 0 0 0 0.756863 0 0 0 0 1 0 0 0 0.5 0"/><feBlend in2="BackgroundImageFix" mode="normal" result="effect1_dropShadow"/><feBlend in="SourceGraphic" in2="effect1_dropShadow" mode="normal" result="shape"/></filter><filter id="b" color-interpolation-filters="sRGB" filterUnits="userSpaceOnUse" height="143.718" width="143.718" x="601.113" y="164.398"><feFlood flood-opacity="0" result="BackgroundImageFix"/><feColorMatrix in="SourceAlpha" type="matrix" values="0 0 0 0 0 0 0 0 0 0 0 0 0 0 0 0 0 0 127 0"/><feOffset dy="19"/><feGaussianBlur stdDeviation="20.5"/><feColorMatrix type="matrix" values="0 0 0 0 0.172549 0 0 0 0 0.756863 0 0 0 0 1 0 0 0 0.5 0"/><feBlend in2="BackgroundImageFix" mode="normal" result="effect1_dropShadow"/><feBlend in="SourceGraphic" in2="effect1_dropShadow" mode="normal" result="shape"/></filter><filter id="c" color-interpolation-filters="sRGB" filterUnits="userSpaceOnUse" height="143.718" width="143.718" x="745.332" y="455.355"><feFlood flood-opacity="0" result="BackgroundImageFix"/><feColorMatrix in="SourceAlpha" type="matrix" values="0 0 0 0 0 0 0 0 0 0 0 0 0 0 0 0 0 0 127 0"/><feOffset dy="19"/><feGaussianBlur stdDeviation="20.5"/><feColorMatrix type="matrix" values="0 0 0 0 0.996078 0 0 0 0 0.423529 0 0 0 0 0.4 0 0 0 0.5 0"/><feBlend in2="BackgroundImageFix" mode="normal" result="effect1_dropShadow"/><feBlend in="SourceGraphic" in2="effect1_dropShadow" mode="normal" result="shape"/></filter><clipPath id="d"><path d="m169.254 562.07h21.7492v21.7492h-21.7492z"/></clipPath><clipPath id="e"><path d="m225.18 562.07h21.7492v21.7492h-21.7492z"/></clipPath><clipPath id="f"><rect height="511.378" rx="25.191" width="236.166" x="358" y="68.7422"/></clipPath><clipPath id="g"><path d="m551.344 531h17.6337v17.6337h-17.6337z"/></clipPath><clipPath id="h"><rect height="511.378" rx="25.191" width="236.166" x="894.836" y="68"/></clipPath><clipPath id="i"><path d="m909.949 98.2305h15.1146v15.1146h-15.1146z"/></clipPath><clipPath id="j"><path d="m894.836 128.461h236.164v176.337c0 11.13-9.02 20.153-20.15 20.153h-195.861c-11.13 0-20.153-9.023-20.153-20.153z"/></clipPath><clipPath id="k"><path d="m909.949 151.133h15.1146v15.1146h-15.1146z"/></clipPath><clipPath id="l"><path d="m909.949 196.477h15.1146v15.1146h-15.1146z"/></clipPath><clipPath id="m"><path d="m909.949 241.82h15.1146v15.1146h-15.1146z"/></clipPath><clipPath id="n"><path d="m909.949 287.164h15.1146v15.1146h-15.1146z"/></clipPath><clipPath id="o"><rect height="511.378" rx="25.191" width="236.166" x="627" y="68"/></clipPath><clipPath id="p"><path d="m657.227 141.059h20.1528v20.1528h-20.1528z"/></clipPath><path clip-rule="evenodd" d="m1200 0h-1200v640h1200zm-879 18c-13.255 0-24 10.7452-24 24v556c0 13.255 10.745 24 24 24h837c13.25 0 24-10.745 24-24v-556c0-13.2548-10.75-24-24-24z" fill="#fff" fill-rule="evenodd"/><path d="m16 40h262v160.693h-262z" fill="#fff"/><rect fill="#f3f5f8" height="83.84" rx="41.92" width="83.84" x="105.078" y="56.7695"/><path clip-rule="evenodd" d="m143.507 87.6293c-1.608 0-2.911 1.3033-2.911 2.9111s1.303 2.9111 2.911 2.9111 2.911-1.3033 2.911-2.9111-1.303-2.9111-2.911-2.9111zm-4.076 2.9111c0-2.2509 1.825-4.0756 4.076-4.0756s4.075 1.8247 4.075 4.0756-1.824 4.0756-4.075 4.0756-4.076-1.8247-4.076-4.0756zm12.927 5.1406c-.213-.3305-.685-.36-.937-.0587l-5.97 7.1387c-.104.124-.255.199-.417.208-.162.008-.32-.052-.436-.165l-3.987-3.8821c-.261-.2541-.688-.2089-.89.0942l-5.003 7.5039c-.258.387.02.905.485.905h23.638c.46 0 .739-.51.489-.897zm-1.83-.8058c.756-.9039 2.172-.8152 2.809.1761l6.973 10.8467c.747 1.163-.087 2.691-1.469 2.691h-23.638c-1.395 0-2.227-1.554-1.454-2.715l5.003-7.5039c.606-.9092 1.889-1.0448 2.672-.2824l3.536 3.4443z" fill="#94a2ab" fill-rule="evenodd"/><rect fill="#94a2ab" height="12.576" rx="6.288" width="133.445" x="80.2773" y="151.785"/><rect fill="#f3f5f8" height="8.384" rx="4.192" width="83.1413" x="105.43" y="175.539"/><g fill="#dfe6ec"><rect height="12.576" rx="6.288" width="102.005" x="95.9961" y="241.215"/><rect height="12.576" rx="6.288" width="119.472" x="87.2656" y="281.738"/><rect height="12.576" rx="6.288" width="85.936" x="104.031" y="322.262"/><rect height="12.576" rx="6.288" width="102.704" x="95.6484" y="362.781"/><rect height="12.576" rx="6.288" width="119.472" x="87.2656" y="403.305"/></g><path d="m24 543.428c0-6.864 5.5643-12.428 12.4281-12.428h229.1439c6.864 0 12.428 5.564 12.428 12.428v59.034c0 6.864-5.564 12.428-12.428 12.428h-229.1439c-6.8638 0-12.4281-5.564-12.4281-12.428z" fill="#fff"/><rect fill="#94a2ab" height="13.9817" rx="6.99083" width="71.4618" x="42.6406" y="556.633"/><path clip-rule="evenodd" d="m121.871 568.283c0 1.287-1.043 2.331-2.33 2.331s-2.33-1.044-2.33-2.331 1.043-2.33 2.33-2.33 2.33 1.043 2.33 2.33zm7.768 0c0 1.287-1.043 2.331-2.33 2.331s-2.33-1.044-2.33-2.331 1.043-2.33 2.33-2.33 2.33 1.043 2.33 2.33zm5.437 2.331c1.287 0 2.331-1.044 2.331-2.331s-1.044-2.33-2.331-2.33-2.33 1.043-2.33 2.33 1.043 2.331 2.33 2.331z" fill="#dfe6ec" fill-rule="evenodd"/><rect fill="#dfe6ec" height="9.3211" rx="4.66055" width="99.4251" x="42.6406" y="579.938"/><rect fill="#94a2ab" height="46.6055" rx="23.3028" width="46.6055" x="156.824" y="549.641"/><g clip-path="url(#d)"><path d="m172.191 575.754 12.325-12.324 5.126 5.126-12.325 12.325-6.408 1.281z" stroke="#fff" stroke-linecap="round" stroke-linejoin="round" stroke-width="2.33028"/></g><rect fill="#f3f5f8" height="45.052" rx="22.526" width="45.052" x="213.527" y="550.417"/><g clip-path="url(#e)"><path d="m230.626 578.392 10.894-10.893m0 10.893-10.894-10.893" stroke="#94a2ab" stroke-linecap="round" stroke-linejoin="round" stroke-width="2.33028"/></g><rect height="45.052" rx="22.526" stroke="#94a2ab" stroke-width="1.55352" width="45.052" x="213.527" y="550.417"/><g clip-path="url(#f)"><rect fill="#fff" height="511.378" rx="25.191" width="236.166" x="358" y="68.7422"/><path d="m0 0h236.166v60.4585h-236.166z" fill="#fff" transform="translate(358 68.7422)"/><path d="m382.18 101.629-4.899 4.898 4.899 4.899" stroke="#94a2ab" stroke-linecap="round" stroke-linejoin="round" stroke-width="1.88933"/><rect fill="#94a2ab" height="7.55731" rx="3.77865" width="86.2793" x="432.941" y="102.75"/><path d="m373.113 226.186c0-5.565 4.512-10.077 10.077-10.077h117.768c5.565 0 10.076 4.512 10.076 10.077v37.786c0 5.565-4.511 10.077-10.076 10.077h-127.845z" fill="#fff"/><g fill="#dfe6ec"><rect height="7.55731" rx="3.77865" width="117.768" x="383.191" y="226.188"/><rect height="7.55731" rx="3.77865" width="19.523" x="383.191" y="241.301"/><rect height="7.55731" rx="3.77865" width="40.9354" x="407.754" y="241.301"/><rect height="7.55731" rx="3.77865" width="85.6495" x="383.191" y="256.418"/></g><path d="m383.19 216.739h117.768c5.217 0 9.446 4.23 9.446 9.447v37.786c0 5.218-4.229 9.447-9.446 9.447h-127.215v-47.233c0-5.217 4.229-9.447 9.447-9.447z" stroke="#94a2ab" stroke-opacity=".3" stroke-width="1.25955"/><path d="m463.801 160.061c0-5.565 4.511-10.077 10.076-10.077h95.096c5.565 0 10.077 4.512 10.077 10.077v32.748h-105.173c-5.565 0-10.076-4.511-10.076-10.076z" fill="#94a2ab"/><rect fill="#dfe6ec" height="7.55731" rx="3.77865" width="19.523" x="503.477" y="160.062"/><rect fill="#dfe6ec" height="7.55731" rx="3.77865" width="40.9354" x="528.039" y="160.062"/><rect fill="#dfe6ec" height="7.55731" rx="3.77865" width="85.6495" x="483.324" y="175.176"/><g filter="url(#a)"><path d="m441.129 371.033c0-5.565 4.511-10.076 10.076-10.076h117.768c5.565 0 10.077 4.511 10.077 10.076v32.749h-127.845c-5.565 0-10.076-4.512-10.076-10.077z" fill="#2cc1ff"/><g fill="#99e1ff"><rect height="7.55731" rx="3.77865" width="117.768" x="451.207" y="371.035"/><rect height="7.55731" rx="3.77865" width="85.6495" x="483.32" y="386.148"/></g></g><path d="m478.914 428.975c0-5.565 4.511-10.077 10.076-10.077h79.982c5.565 0 10.076 4.512 10.076 10.077v17.634h-90.058c-5.565 0-10.076-4.512-10.076-10.077z" fill="#94a2ab"/><rect fill="#dfe6ec" height="7.55731" rx="3.77865" width="19.523" x="503.477" y="428.977"/><rect fill="#dfe6ec" height="7.55731" rx="3.77865" width="40.9354" x="528.039" y="428.977"/><path d="m373.113 299.237c0-5.565 4.512-10.077 10.077-10.077h125.955c5.565 0 10.076 4.512 10.076 10.077v22.671c0 5.566-4.511 10.077-10.076 10.077h-136.032z" fill="#fff"/><rect fill="#dfe6ec" height="7.55731" rx="3.77865" width="117.768" x="383.191" y="299.238"/><rect fill="#dfe6ec" height="7.55731" rx="3.77865" width="85.6495" x="383.191" y="314.352"/><path d="m383.19 289.79h125.955c5.217 0 9.446 4.229 9.446 9.447v22.671c0 5.218-4.229 9.447-9.446 9.447h-135.402v-32.118c0-5.218 4.229-9.447 9.447-9.447z" stroke="#94a2ab" stroke-opacity=".3" stroke-width="1.25955"/><rect height="39.0461" rx="9.44664" stroke="#94a2ab" stroke-opacity=".3" stroke-width="1.25955" width="161.852" x="373.743" y="520.294"/><rect fill="#94a2ab" height="37.7865" rx="18.8933" width="37.7865" x="541.266" y="520.922"/><g clip-path="url(#g)"><path d="m567.419 539.248c.488.225.488.92 0 1.145l-14.501 6.67 2.447-7.242-2.447-7.243z" style="fill-rule:evenodd;clip-rule:evenodd;stroke:#fff;stroke-width:1.88933;stroke-linecap:round;stroke-linejoin:round"/></g></g><g clip-path="url(#h)"><rect fill="#fff" height="511.378" rx="25.191" width="236.166" x="894.836" y="68"/><path d="m0 0h236.166v108.321h-236.166z" fill="#fff" transform="translate(894.836 204.035)"/><rect fill="#dfe6ec" height="7.55731" rx="3.77865" width="170.039" x="909.949" y="219.148"/><rect fill="#dfe6ec" height="7.55731" rx="3.77865" width="83.1304" x="909.949" y="236.785"/><rect fill="#dfe6ec" height="7.55731" rx="3.77865" width="107.692" x="1000.64" y="236.785"/><rect fill="#dfe6ec" height="7.55731" rx="3.77865" width="183.265" x="909.949" y="254.418"/><rect fill="#dfe6ec" height="7.55731" rx="3.77865" width="164.371" x="909.949" y="272.051"/><rect fill="#dfe6ec" height="7.55731" rx="3.77865" width="130.364" x="909.949" y="289.684"/><path d="m0 0h236.166v59.1989h-236.166z" fill="#fff" transform="translate(894.836 138.539)"/><rect fill="#94a2ab" height="11.336" rx="5.66798" width="157.444" x="909.949" y="153.652"/><rect fill="#dfe6ec" height="7.55731" rx="3.77865" width="102.024" x="909.949" y="175.066"/><path d="m0 0h236.166v161.223h-236.166z" fill="#fff" transform="translate(894.836 322.43)"/><g fill="#dfe6ec"><rect height="7.55731" rx="3.77865" width="170.039" x="909.949" y="337.543"/><rect height="7.55731" rx="3.77865" width="83.1304" x="909.949" y="355.18"/><rect height="7.55731" rx="3.77865" width="107.692" x="1000.64" y="355.18"/><rect height="7.55731" rx="3.77865" width="183.265" x="909.949" y="372.812"/><rect height="7.55731" rx="3.77865" width="49.1225" x="909.949" y="390.445"/><rect height="7.55731" rx="3.77865" width="53.5309" x="966.629" y="390.445"/><rect height="7.55731" rx="3.77865" width="164.371" x="909.949" y="408.078"/><rect height="7.55731" rx="3.77865" width="183.265" x="909.949" y="425.715"/><rect height="7.55731" rx="3.77865" width="92.577" x="909.949" y="443.348"/><rect height="7.55731" rx="3.77865" width="34.6377" x="1010.08" y="443.348"/><rect height="7.55731" rx="3.77865" width="53.5309" x="1052.28" y="443.348"/><rect height="7.55731" rx="3.77865" width="130.364" x="909.949" y="460.98"/></g><path d="m0 0h236.166v161.223h-236.166z" fill="#fff" transform="translate(894.836 483.656)"/><rect fill="#dfe6ec" height="7.55731" rx="3.77865" width="170.039" x="909.949" y="498.77"/><rect fill="#dfe6ec" height="7.55731" rx="3.77865" width="83.1304" x="909.949" y="516.406"/><rect fill="#dfe6ec" height="7.55731" rx="3.77865" width="107.692" x="1000.64" y="516.406"/><rect fill="#dfe6ec" height="7.55731" rx="3.77865" width="183.265" x="909.949" y="534.039"/><rect fill="#dfe6ec" height="7.55731" rx="3.77865" width="49.1225" x="909.949" y="551.672"/><rect fill="#dfe6ec" height="7.55731" rx="3.77865" width="53.5309" x="966.629" y="551.672"/><rect fill="#dfe6ec" height="7.55731" rx="3.77865" width="164.371" x="909.949" y="569.305"/><path d="m894.836 68h236.166v511.378h-236.166z" fill="#fff" opacity=".6"/><path d="m0 0h236.166v60.4585h-236.166z" fill="#fff" transform="translate(894.836 68)"/><g clip-path="url(#i)"><path d="m913.734 109.574 7.571-7.57m0 7.57-7.571-7.57" stroke="#94a2ab" stroke-linecap="round" stroke-linejoin="round" stroke-width="1.88933"/></g><rect fill="#94a2ab" height="7.55731" rx="3.77865" width="86.2793" x="969.777" y="102.008"/><g clip-path="url(#j)"><path d="m894.836 128.461h236.164v176.337c0 11.13-9.02 20.153-20.15 20.153h-195.861c-11.13 0-20.153-9.023-20.153-20.153z" fill="#f3f5f8"/><g clip-path="url(#k)"><circle cx="917.507" cy="158.691" fill="#dfe6ec" r="6.61265" stroke="#94a2ab" stroke-width="1.88933"/></g><rect fill="#94a2ab" height="11.336" rx="5.66798" width="91.9473" x="935.141" y="153.023"/><path d="m1106.82 163.59 4.9-4.899-4.9-4.898" stroke="#94a2ab" stroke-linecap="round" stroke-linejoin="round" stroke-width="1.88933"/><g clip-path="url(#l)"><circle cx="917.507" cy="204.031" fill="#dfe6ec" r="6.61265" stroke="#94a2ab" stroke-width="1.88933"/></g><rect fill="#94a2ab" height="11.336" rx="5.66798" width="91.9473" x="935.141" y="198.367"/><path d="m1106.82 208.93 4.9-4.899-4.9-4.898" stroke="#94a2ab" stroke-linecap="round" stroke-linejoin="round" stroke-width="1.88933"/><g clip-path="url(#m)"><circle cx="917.507" cy="249.378" fill="#dfe6ec" r="6.61265" stroke="#94a2ab" stroke-width="1.88933"/></g><rect fill="#94a2ab" height="11.336" rx="5.66798" width="91.9473" x="935.141" y="243.711"/><path d="m1106.82 254.277 4.9-4.898-4.9-4.899" stroke="#94a2ab" stroke-linecap="round" stroke-linejoin="round" stroke-width="1.88933"/><g clip-path="url(#n)"><circle cx="917.507" cy="294.73" fill="#dfe6ec" r="6.61265" stroke="#94a2ab" stroke-width="1.88933"/></g><rect fill="#94a2ab" height="11.336" rx="5.66798" width="91.9473" x="935.137" y="289.055"/><path d="m1106.82 299.621 4.9-4.898-4.9-4.899" stroke="#94a2ab" stroke-linecap="round" stroke-linejoin="round" stroke-width="1.88933"/></g><path d="m895.466 129.091h234.904v175.707c0 10.782-8.74 19.523-19.52 19.523h-195.861c-10.783 0-19.523-8.741-19.523-19.523z" stroke="#94a2ab" stroke-opacity=".3" stroke-width="1.25955"/></g><g clip-path="url(#o)"><rect fill="#fff" height="511.378" rx="25.191" width="236.166" x="627" y="68"/><path d="m0 0h236.166v57.9394h-236.166z" fill="#fff" transform="translate(627 68)"/><rect fill="#dfe6ec" height="7.55731" rx="3.77865" width="22.6719" x="642.113" y="98.2305"/><rect fill="#94a2ab" height="7.55731" rx="3.77865" width="63.6074" x="713.277" y="98.2305"/><rect fill="#dfe6ec" height="7.55731" rx="3.77865" width="22.6719" x="825.379" y="98.2305"/><path d="m0 0h236.166v91.9473h-236.166z" fill="#fff" transform="translate(627 365.254)"/><rect fill="#f3f5f8" height="61.718" rx="10.0764" width="61.718" x="642.113" y="380.367"/><path clip-rule="evenodd" d="m669.82 401.249c-1.449 0-2.624 1.175-2.624 2.624s1.175 2.624 2.624 2.624c1.45 0 2.624-1.175 2.624-2.624s-1.174-2.624-2.624-2.624zm-3.673 2.624c0-2.029 1.644-3.674 3.673-3.674s3.674 1.645 3.674 3.674-1.645 3.674-3.674 3.674-3.673-1.645-3.673-3.674zm11.651 4.634c-.191-.298-.617-.325-.844-.053l-5.382 6.434c-.093.112-.23.18-.375.188-.146.007-.289-.046-.393-.148l-3.594-3.5c-.235-.229-.62-.188-.803.085l-4.509 6.764c-.232.348.018.815.437.815h21.307c.415 0 .666-.459.442-.808zm-1.649-.727c.681-.815 1.958-.735 2.532.159l6.286 9.777c.673 1.048-.079 2.426-1.325 2.426h-21.307c-1.258 0-2.008-1.401-1.31-2.448l4.509-6.763c.546-.82 1.703-.942 2.409-.255l3.187 3.105z" fill="#94a2ab" fill-rule="evenodd"/><circle cx="716.429" cy="388.554" fill="#dfe6ec" r="5.03821"/><rect fill="#dfe6ec" height="5.03821" rx="2.5191" width="28.3399" x="726.5" y="386.035"/><rect fill="#94a2ab" height="7.55731" rx="3.77865" width="90.6877" x="711.391" y="401.148"/><rect fill="#f3f5f8" height="7.55731" rx="3.77865" width="64.2371" x="711.391" y="416.266"/><rect fill="#f3f5f8" height="7.55731" rx="3.77865" width="102.653" x="711.391" y="431.379"/><path d="m0 0h236.166v91.9473h-236.166z" fill="#fff" transform="translate(627 268.273)"/><circle cx="647.151" cy="291.573" fill="#dfe6ec" r="5.03821"/><rect fill="#dfe6ec" height="5.03821" rx="2.5191" width="28.3399" x="657.227" y="289.055"/><rect fill="#94a2ab" height="7.55731" rx="3.77865" width="90.6877" x="642.113" y="304.168"/><g fill="#f3f5f8"><rect height="7.55731" rx="3.77865" width="64.2371" x="642.113" y="319.285"/><rect height="7.55731" rx="3.77865" width="102.653" x="642.113" y="334.398"/><rect height="61.718" rx="10.0764" width="61.718" x="786.332" y="283.387"/></g><path clip-rule="evenodd" d="m814.039 304.272c-1.449 0-2.624 1.175-2.624 2.624 0 1.45 1.175 2.624 2.624 2.624s2.624-1.174 2.624-2.624c0-1.449-1.175-2.624-2.624-2.624zm-3.674 2.624c0-2.029 1.645-3.673 3.674-3.673s3.674 1.644 3.674 3.673-1.645 3.674-3.674 3.674-3.674-1.645-3.674-3.674zm11.652 4.634c-.192-.298-.617-.324-.844-.053l-5.382 6.435c-.094.112-.23.18-.376.187-.146.008-.288-.046-.393-.148l-3.593-3.5c-.235-.229-.621-.188-.803.085l-4.509 6.764c-.233.349.017.816.437.816h21.307c.415 0 .666-.459.441-.809zm-1.649-.726c.681-.815 1.957-.735 2.532.158l6.285 9.778c.674 1.048-.078 2.426-1.324 2.426h-21.307c-1.258 0-2.008-1.402-1.31-2.448l4.509-6.764c.546-.82 1.703-.942 2.408-.255l3.188 3.105z" fill="#94a2ab" fill-rule="evenodd"/><path d="m0 0h236.166v91.9473h-236.166z" fill="#fff" transform="translate(627 559.227)"/><rect fill="#f3f5f8" height="61.718" rx="10.0764" width="61.718" x="642.113" y="574.34"/><circle cx="716.429" cy="582.526" fill="#dfe6ec" r="5.03821"/><g clip-path="url(#p)"><path d="m675.45 160.622c.369.369.967.369 1.336 0s.369-.967 0-1.336zm-2.796-10.744c0 3.652-2.96 6.612-6.612 6.612v1.89c4.695 0 8.502-3.807 8.502-8.502zm-6.612 6.612c-3.652 0-6.613-2.96-6.613-6.612h-1.889c0 4.695 3.806 8.502 8.502 8.502zm-6.613-6.612c0-3.652 2.961-6.613 6.613-6.613v-1.889c-4.696 0-8.502 3.806-8.502 8.502zm6.613-6.613c3.652 0 6.612 2.961 6.612 6.613h1.89c0-4.696-3.807-8.502-8.502-8.502zm4.676 12.624 4.732 4.733 1.336-1.336-4.733-4.733z" fill="#94a2ab"/></g><rect fill="#94a2ab" height="7.55731" rx="3.77865" width="81.8708" x="687.457" y="147.355"/><rect height="39.0461" rx="9.44664" stroke="#94a2ab" stroke-opacity=".3" stroke-width="1.25955" width="204.677" x="642.743" y="131.61"/><path d="m0 0h236.166v91.9473h-236.166z" fill="#fff" transform="translate(627 171.285)"/><g filter="url(#b)"><rect fill="#2cc1ff" height="61.718" rx="10.0764" width="61.718" x="642.113" y="186.398"/><path clip-rule="evenodd" d="m669.824 207.288c-1.449 0-2.624 1.175-2.624 2.624s1.175 2.624 2.624 2.624 2.624-1.175 2.624-2.624-1.175-2.624-2.624-2.624zm-3.673 2.624c0-2.029 1.644-3.674 3.673-3.674s3.674 1.645 3.674 3.674-1.645 3.674-3.674 3.674-3.673-1.645-3.673-3.674zm11.651 4.634c-.191-.298-.617-.325-.844-.053l-5.382 6.434c-.093.112-.23.18-.376.188-.145.007-.288-.046-.392-.148l-3.594-3.5c-.235-.229-.621-.188-.803.085l-4.509 6.764c-.232.348.018.816.437.816h21.307c.415 0 .666-.46.441-.809zm-1.649-.727c.681-.814 1.958-.734 2.532.159l6.285 9.777c.674 1.048-.078 2.426-1.324 2.426h-21.307c-1.258 0-2.008-1.401-1.31-2.448l4.509-6.763c.546-.82 1.703-.942 2.408-.255l3.188 3.105z" fill="#cbf0ff" fill-rule="evenodd"/></g><circle cx="716.429" cy="194.585" fill="#dfe6ec" r="5.03821"/><rect fill="#dfe6ec" height="5.03821" rx="2.5191" width="28.3399" x="726.504" y="192.066"/><rect fill="#94a2ab" height="7.55731" rx="3.77865" width="90.6877" x="711.391" y="207.18"/><rect fill="#f3f5f8" height="7.55731" rx="3.77865" width="64.2371" x="711.391" y="222.297"/><rect fill="#f3f5f8" height="7.55731" rx="3.77865" width="102.653" x="711.391" y="237.41"/><path d="m0 0h236.166v91.9473h-236.166z" fill="#fff" transform="translate(627 462.242)"/><circle cx="647.151" cy="485.542" fill="#dfe6ec" r="5.03821"/><rect fill="#dfe6ec" height="5.03821" rx="2.5191" width="28.3399" x="657.227" y="483.023"/><rect fill="#94a2ab" height="7.55731" rx="3.77865" width="90.6877" x="642.113" y="498.137"/><rect fill="#f3f5f8" height="7.55731" rx="3.77865" width="64.2371" x="642.113" y="513.254"/><rect fill="#f3f5f8" height="7.55731" rx="3.77865" width="102.653" x="642.113" y="528.367"/><g filter="url(#c)"><rect fill="#fe6c66" height="61.718" rx="10.0764" width="61.718" x="786.332" y="477.355"/><path clip-rule="evenodd" d="m814.039 498.245c-1.449 0-2.624 1.175-2.624 2.624s1.175 2.624 2.624 2.624 2.624-1.175 2.624-2.624-1.175-2.624-2.624-2.624zm-3.674 2.624c0-2.029 1.645-3.674 3.674-3.674s3.674 1.645 3.674 3.674-1.645 3.674-3.674 3.674-3.674-1.645-3.674-3.674zm11.652 4.634c-.192-.298-.617-.325-.844-.053l-5.382 6.434c-.094.112-.23.18-.376.188-.146.007-.288-.046-.393-.148l-3.593-3.5c-.235-.229-.621-.188-.803.085l-4.509 6.764c-.233.348.017.816.437.816h21.307c.415 0 .666-.46.441-.809zm-1.649-.727c.681-.814 1.957-.734 2.532.159l6.285 9.777c.674 1.048-.078 2.426-1.324 2.426h-21.307c-1.258 0-2.008-1.401-1.31-2.448l4.509-6.763c.546-.82 1.703-.942 2.408-.255l3.188 3.105z" fill="#ffdfde" fill-rule="evenodd"/></g></g></svg>